<mxfile host="Electron" agent="Mozilla/5.0 (Windows NT 10.0; Win64; x64) AppleWebKit/537.36 (KHTML, like Gecko) draw.io/24.7.17 Chrome/128.0.6613.36 Electron/32.0.1 Safari/537.36" version="24.7.17">
  <diagram name="Page-1" id="3fDWkS7Q-IRrYR3W9UIq">
    <mxGraphModel dx="780" dy="496" grid="1" gridSize="10" guides="1" tooltips="1" connect="1" arrows="1" fold="1" page="1" pageScale="1" pageWidth="850" pageHeight="1100" math="0" shadow="0">
      <root>
        <mxCell id="0" />
        <mxCell id="1" parent="0" />
        <mxCell id="vb8b4caAOO2Vbhh_t5cf-1" value="Registration&amp;nbsp;" style="ellipse;whiteSpace=wrap;html=1;aspect=fixed;" vertex="1" parent="1">
          <mxGeometry x="360" y="40" width="80" height="80" as="geometry" />
        </mxCell>
        <mxCell id="vb8b4caAOO2Vbhh_t5cf-2" value="Customer" style="rounded=0;whiteSpace=wrap;html=1;" vertex="1" parent="1">
          <mxGeometry x="40" y="40" width="120" height="60" as="geometry" />
        </mxCell>
        <mxCell id="vb8b4caAOO2Vbhh_t5cf-4" value="Customer&amp;nbsp;" style="shape=partialRectangle;whiteSpace=wrap;html=1;left=0;right=0;fillColor=none;" vertex="1" parent="1">
          <mxGeometry x="630" y="40" width="120" height="60" as="geometry" />
        </mxCell>
        <mxCell id="vb8b4caAOO2Vbhh_t5cf-5" value="" style="endArrow=classic;html=1;rounded=0;entryX=0.008;entryY=0.388;entryDx=0;entryDy=0;entryPerimeter=0;exitX=1;exitY=0.5;exitDx=0;exitDy=0;" edge="1" parent="1" source="vb8b4caAOO2Vbhh_t5cf-2" target="vb8b4caAOO2Vbhh_t5cf-1">
          <mxGeometry width="50" height="50" relative="1" as="geometry">
            <mxPoint x="380" y="180" as="sourcePoint" />
            <mxPoint x="430" y="130" as="targetPoint" />
            <Array as="points">
              <mxPoint x="240" y="70" />
            </Array>
          </mxGeometry>
        </mxCell>
        <mxCell id="vb8b4caAOO2Vbhh_t5cf-6" value="" style="endArrow=classic;html=1;rounded=0;exitX=1.017;exitY=0.404;exitDx=0;exitDy=0;exitPerimeter=0;" edge="1" parent="1" source="vb8b4caAOO2Vbhh_t5cf-1" target="vb8b4caAOO2Vbhh_t5cf-4">
          <mxGeometry width="50" height="50" relative="1" as="geometry">
            <mxPoint x="380" y="180" as="sourcePoint" />
            <mxPoint x="430" y="130" as="targetPoint" />
          </mxGeometry>
        </mxCell>
        <mxCell id="vb8b4caAOO2Vbhh_t5cf-8" value="Request For Regidtration" style="text;html=1;align=center;verticalAlign=middle;whiteSpace=wrap;rounded=0;" vertex="1" parent="1">
          <mxGeometry x="190" y="30" width="150" height="50" as="geometry" />
        </mxCell>
        <mxCell id="vb8b4caAOO2Vbhh_t5cf-9" value="" style="endArrow=classic;html=1;rounded=0;entryX=0.975;entryY=0.754;entryDx=0;entryDy=0;entryPerimeter=0;" edge="1" parent="1" target="vb8b4caAOO2Vbhh_t5cf-1">
          <mxGeometry width="50" height="50" relative="1" as="geometry">
            <mxPoint x="790" y="100" as="sourcePoint" />
            <mxPoint x="430" y="130" as="targetPoint" />
          </mxGeometry>
        </mxCell>
        <mxCell id="vb8b4caAOO2Vbhh_t5cf-10" value="Responce For Registration Successfully" style="text;html=1;align=center;verticalAlign=middle;whiteSpace=wrap;rounded=0;" vertex="1" parent="1">
          <mxGeometry x="400" y="70" width="300" height="30" as="geometry" />
        </mxCell>
        <mxCell id="vb8b4caAOO2Vbhh_t5cf-11" value="" style="endArrow=classic;html=1;rounded=0;exitX=0.5;exitY=1;exitDx=0;exitDy=0;" edge="1" parent="1" source="vb8b4caAOO2Vbhh_t5cf-1" target="vb8b4caAOO2Vbhh_t5cf-12">
          <mxGeometry width="50" height="50" relative="1" as="geometry">
            <mxPoint x="380" y="180" as="sourcePoint" />
            <mxPoint x="400" y="200" as="targetPoint" />
          </mxGeometry>
        </mxCell>
        <mxCell id="vb8b4caAOO2Vbhh_t5cf-12" value="Login&amp;nbsp;" style="ellipse;whiteSpace=wrap;html=1;aspect=fixed;" vertex="1" parent="1">
          <mxGeometry x="360" y="160" width="80" height="80" as="geometry" />
        </mxCell>
        <mxCell id="vb8b4caAOO2Vbhh_t5cf-13" value="" style="endArrow=classic;html=1;rounded=0;entryX=1;entryY=1;entryDx=0;entryDy=0;exitX=1;exitY=0.5;exitDx=0;exitDy=0;" edge="1" parent="1" source="vb8b4caAOO2Vbhh_t5cf-12" target="vb8b4caAOO2Vbhh_t5cf-10">
          <mxGeometry width="50" height="50" relative="1" as="geometry">
            <mxPoint x="449.5" y="199.5" as="sourcePoint" />
            <mxPoint x="650.5" y="200.5" as="targetPoint" />
            <Array as="points">
              <mxPoint x="700" y="200" />
            </Array>
          </mxGeometry>
        </mxCell>
        <mxCell id="vb8b4caAOO2Vbhh_t5cf-14" value="" style="endArrow=none;html=1;rounded=0;entryX=0.5;entryY=1;entryDx=0;entryDy=0;" edge="1" parent="1" target="vb8b4caAOO2Vbhh_t5cf-2">
          <mxGeometry width="50" height="50" relative="1" as="geometry">
            <mxPoint x="90" y="1100" as="sourcePoint" />
            <mxPoint x="140" y="160" as="targetPoint" />
          </mxGeometry>
        </mxCell>
        <mxCell id="vb8b4caAOO2Vbhh_t5cf-15" value="" style="endArrow=classic;html=1;rounded=0;entryX=0;entryY=0.5;entryDx=0;entryDy=0;" edge="1" parent="1" target="vb8b4caAOO2Vbhh_t5cf-12">
          <mxGeometry width="50" height="50" relative="1" as="geometry">
            <mxPoint x="100" y="200" as="sourcePoint" />
            <mxPoint x="430" y="80" as="targetPoint" />
            <Array as="points">
              <mxPoint x="100" y="200" />
            </Array>
          </mxGeometry>
        </mxCell>
        <mxCell id="vb8b4caAOO2Vbhh_t5cf-16" value="Login&amp;nbsp;" style="ellipse;whiteSpace=wrap;html=1;aspect=fixed;" vertex="1" parent="1">
          <mxGeometry x="360" y="1060" width="80" height="80" as="geometry" />
        </mxCell>
        <mxCell id="vb8b4caAOO2Vbhh_t5cf-17" value="" style="endArrow=classic;html=1;rounded=0;entryX=0;entryY=0.5;entryDx=0;entryDy=0;" edge="1" parent="1" target="vb8b4caAOO2Vbhh_t5cf-16">
          <mxGeometry width="50" height="50" relative="1" as="geometry">
            <mxPoint x="90" y="1100" as="sourcePoint" />
            <mxPoint x="430" y="1030" as="targetPoint" />
          </mxGeometry>
        </mxCell>
      </root>
    </mxGraphModel>
  </diagram>
</mxfile>
